<svg width="248" height="73" viewBox="0 0 248 73" fill="none" xmlns="http://www.w3.org/2000/svg">
<g clip-path="url(#clip0_842_34)">
<path d="M19.6137 33.8487H11.9753L0 1.96533H8.5777L15.903 24.5687H16.0828L23.3647 1.96533H31.806L19.6106 33.8456L19.6137 33.8487Z" fill="#231F20"/>
<path d="M66.8329 17.773C66.8329 20.2945 66.3989 22.6005 65.534 24.6846C64.6691 26.7718 63.4756 28.5559 61.938 30.0401C60.4035 31.5274 58.5807 32.6742 56.4665 33.4834C54.3492 34.2958 52.0583 34.6989 49.5876 34.6989C47.1169 34.6989 44.8291 34.2958 42.7304 33.4834C40.6286 32.6742 38.8151 31.5243 37.2806 30.0401C35.7461 28.5528 34.5495 26.7687 33.6846 24.6846C32.8197 22.5973 32.3888 20.2945 32.3888 17.773C32.3888 15.2514 32.8197 12.9173 33.6846 10.8613C34.5495 8.80848 35.743 7.05558 37.2806 5.61827C38.8151 4.1747 40.6317 3.06547 42.7304 2.28432C44.8322 1.50317 47.1169 1.11572 49.5876 1.11572C52.0583 1.11572 54.3523 1.50317 56.4665 2.28432C58.5807 3.06547 60.4035 4.1747 61.938 5.61827C63.4725 7.05871 64.6691 8.80848 65.534 10.8613C66.3989 12.9173 66.8329 15.2233 66.8329 17.773ZM58.6582 17.773C58.6582 16.3919 58.435 15.1014 57.9855 13.9016C57.536 12.7017 56.9222 11.6706 56.1317 10.8145C55.3412 9.95834 54.3895 9.28342 53.2735 8.78974C52.1575 8.29293 50.9268 8.04608 49.5907 8.04608C48.2546 8.04608 47.0301 8.29293 45.9296 8.78974C44.826 9.28655 43.8743 9.95834 43.0714 10.8145C42.2654 11.6706 41.6485 12.6986 41.2176 13.9016C40.7836 15.1014 40.5666 16.3919 40.5666 17.773C40.5666 19.154 40.7898 20.5414 41.2393 21.7599C41.6888 22.9785 42.3026 24.019 43.0931 24.8908C43.8836 25.7626 44.826 26.4437 45.9296 26.9405C47.0301 27.4373 48.2546 27.6842 49.5907 27.6842C50.9268 27.6842 52.1513 27.4373 53.2518 26.9405C54.3523 26.4437 55.3071 25.7626 56.11 24.8908C56.9129 24.0222 57.5391 22.9785 57.9855 21.7599C58.435 20.5445 58.6582 19.2134 58.6582 17.773Z" fill="#231F20"/>
<path d="M71.8796 33.8485V1.96826H79.5614V27.1369H91.8033V33.8454H71.8796V33.8485Z" fill="#231F20"/>
<path d="M95.3809 33.8485V1.96826H103.063V33.8485H95.3809Z" fill="#231F20"/>
<path d="M123.12 8.54242V33.8485H115.481V8.54242H106.547V1.96826H132.057V8.54242H123.12Z" fill="#231F20"/>
<path d="M154.302 33.8487L151.844 27.587H139.602L137.277 33.8487H128.969L142.237 1.96533H149.652L162.787 33.8456H154.302V33.8487ZM145.815 10.4799L141.794 21.4222H149.749L145.815 10.4799Z" fill="#231F20"/>
<path d="M8.96832 61.8328H9.50462C9.50462 65.1136 10.5493 68.3663 16.2564 68.3663C21.9635 68.3663 23.2159 65.8666 23.2159 63.3669C23.2159 61.7703 22.5897 60.7766 21.3652 60.2048C20.1717 59.633 17.8994 59.3018 16.1386 59.0612C14.5266 58.8519 11.8358 58.3988 10.7012 57.7052C9.62552 57.0427 8.90942 55.8679 8.90942 54.1213C8.90942 50.8685 11.5382 48.4907 16.1076 48.4907C21.6039 48.4907 23.0671 51.1404 23.0671 55.746H22.5308C22.5308 51.531 21.1575 49.0313 16.1076 49.0313C11.8947 49.0313 9.44572 51.1997 9.44572 54.1181C9.44572 55.6835 10.0719 56.6772 10.9988 57.249C12.0745 57.9114 14.7033 58.302 16.2843 58.5426C18.0482 58.7831 20.3763 59.1144 21.6597 59.7455C22.9431 60.3767 23.7522 61.6109 23.7522 63.3576C23.7522 66.1291 22.1681 68.8975 16.2533 68.8975C10.3385 68.8975 8.96522 65.3136 8.96522 61.8234L8.96832 61.8328Z" fill="#231F20"/>
<path d="M38.3036 48.7971H50.282V49.3376H38.843V58.3708H48.3104V58.9114H38.843V68.0633H50.5517V68.6039H38.3036V48.7939V48.7971Z" fill="#231F20"/>
<path d="M64.5326 48.7969H72.5368C76.7497 48.7969 78.8081 50.6341 78.8081 54.3055C78.8081 56.7146 77.6735 58.7925 74.9858 59.0612V59.0924C77.7634 59.3924 78.6903 61.3515 78.6903 63.8793V68.6068H78.154V63.8793C78.154 61.1984 76.9884 59.4549 73.3738 59.4549H65.0689V68.6068H64.5295V48.7969H64.5326ZM72.6577 58.9112C76.8086 58.9112 78.2718 57.0739 78.2718 54.3055C78.2718 50.9622 76.3901 49.3374 72.5368 49.3374H65.0689V58.9112H72.6546H72.6577Z" fill="#231F20"/>
<path d="M91.8344 48.7969H92.4915L100.796 67.9132H100.886L109.219 48.7969H109.845L101.184 68.6068H100.496L91.8344 48.7969Z" fill="#231F20"/>
<path d="M123.798 48.7969H124.335V68.6068H123.798V48.7969Z" fill="#231F20"/>
<path d="M139.091 61.8328H139.627C139.627 65.1136 140.672 68.3663 146.379 68.3663C152.086 68.3663 153.338 65.8666 153.338 63.3669C153.338 61.7703 152.712 60.7766 151.488 60.2048C150.294 59.633 148.022 59.3018 146.261 59.0612C144.649 58.8519 141.961 58.3988 140.824 57.7052C139.748 57.0427 139.032 55.8679 139.032 54.1213C139.032 50.8685 141.661 48.4907 146.23 48.4907C151.726 48.4907 153.19 51.1404 153.19 55.746H152.653C152.653 51.531 151.28 49.0313 146.23 49.0313C142.017 49.0313 139.568 51.1997 139.568 54.1181C139.568 55.6835 140.194 56.6772 141.121 57.249C142.197 57.9114 144.826 58.302 146.41 58.5426C148.171 58.7831 150.502 59.1144 151.785 59.7455C153.069 60.3767 153.878 61.6109 153.878 63.3576C153.878 66.1291 152.294 68.8975 146.379 68.8975C140.464 68.8975 139.091 65.3136 139.091 61.8234V61.8328Z" fill="#231F20"/>
<path d="M244.798 0.00292969H212.979V35.8171H247.997V3.23064C247.997 1.45587 246.555 0.00292969 244.795 0.00292969H244.798Z" fill="#25A9E0"/>
<path d="M175.578 69.7725C175.578 71.5472 177.019 73.0002 178.78 73.0002H210.195V38.6265H175.578V69.7725Z" fill="#25A9E0"/>
<path d="M212.982 73.0002H244.801C246.562 73.0002 248.003 71.5472 248.003 69.7725V38.6265H212.986V73.0002H212.982Z" fill="#25A9E0"/>
<path d="M210.195 0H178.78C177.019 0 175.578 1.45294 175.578 3.22771V35.8142H210.195V0Z" fill="#25A9E0"/>
<path d="M195.824 7.68652H189.953V28.1339H195.824V7.68652Z" fill="#F9F9F9"/>
<path d="M203.031 20.8692V14.9512L182.745 14.9512V20.8692H203.031Z" fill="#F9F9F9"/>
</g>
<defs>
<clipPath id="clip0_842_34">
<rect width="248" height="73" fill="white"/>
</clipPath>
</defs>
</svg>
