<svg width="112" height="46" viewBox="0 0 112 46" fill="none" xmlns="http://www.w3.org/2000/svg">
<g clip-path="url(#clip0_12_70)">
<path d="M63.9764 13.4271V14.9217H66.4612V16.3113H63.9764V17.9326H66.7889V19.3747H62.1215V11.9788H66.7889V13.4209H63.9764V13.4271Z" fill="#F9F9F9"/>
<path d="M70.6609 17.6946L71.9749 13.501H73.9507L71.8031 19.3807H69.5124L67.3647 13.501H69.3501L70.6641 17.6946H70.6609Z" fill="#F9F9F9"/>
<path d="M77.2979 13.7171C77.6225 13.5319 77.9852 13.4392 78.3829 13.4392V15.3476H77.8738C77.4093 15.3476 77.0625 15.4434 76.8302 15.6379C76.598 15.8325 76.4834 16.1691 76.4834 16.6539V19.3838H74.6285V13.5041H76.4834V14.483C76.6998 14.1587 76.9734 13.9055 77.2979 13.7202V13.7171Z" fill="#F9F9F9"/>
<path d="M80.3936 19.0935C79.9196 18.8465 79.5473 18.4975 79.2769 18.0405C79.0064 17.5835 78.8696 17.0492 78.8696 16.4378C78.8696 15.8263 79.0064 15.3014 79.2832 14.8412C79.5569 14.3811 79.9355 14.0291 80.4127 13.782C80.89 13.535 81.4245 13.4146 82.0195 13.4146C82.6144 13.4146 83.1489 13.5381 83.6262 13.782C84.1034 14.0291 84.4789 14.3811 84.7557 14.8412C85.0293 15.3014 85.1693 15.8325 85.1693 16.4378C85.1693 17.043 85.0293 17.5742 84.7525 18.0343C84.4725 18.4944 84.0939 18.8465 83.6134 19.0935C83.133 19.3406 82.5953 19.461 82.0004 19.461C81.4054 19.461 80.8741 19.3375 80.4 19.0935H80.3936ZM82.9008 17.5248C83.1489 17.2716 83.2762 16.9103 83.2762 16.4409C83.2762 15.9715 83.1553 15.6071 82.9135 15.357C82.6717 15.1037 82.3726 14.9771 82.0195 14.9771C81.6663 14.9771 81.3577 15.1006 81.119 15.3508C80.8804 15.6009 80.7595 15.9622 80.7595 16.4409C80.7595 16.9195 80.8772 17.2746 81.1127 17.5248C81.3481 17.778 81.644 17.9046 81.9972 17.9046C82.3503 17.9046 82.6526 17.778 82.9039 17.5248H82.9008Z" fill="#F9F9F9"/>
<path d="M88.7137 13.6709C89.0318 13.5011 89.4041 13.4177 89.8304 13.4177C90.3299 13.4177 90.7817 13.5412 91.1858 13.7852C91.5899 14.0323 91.9112 14.3812 92.1467 14.8382C92.3821 15.2953 92.4998 15.8264 92.4998 16.4286C92.4998 17.0308 92.3821 17.565 92.1467 18.0251C91.9112 18.4853 91.5899 18.8404 91.1858 19.0905C90.7817 19.3407 90.3299 19.4642 89.8304 19.4642C89.4104 19.4642 89.0382 19.3808 88.7168 19.211C88.3955 19.0411 88.1442 18.8249 87.9628 18.5563V22.1817H86.1079V13.5011H87.9628V14.3318C88.1442 14.057 88.3923 13.8377 88.7105 13.6679L88.7137 13.6709ZM90.2281 15.3725C89.9704 15.1162 89.6554 14.9896 89.2768 14.9896C88.8982 14.9896 88.5959 15.1193 88.3382 15.3787C88.0805 15.6381 87.9533 15.9932 87.9533 16.444C87.9533 16.8949 88.0805 17.2469 88.3382 17.5094C88.5959 17.7688 88.9077 17.8985 89.2768 17.8985C89.6459 17.8985 89.9609 17.7657 90.2218 17.5033C90.4827 17.2408 90.6131 16.8825 90.6131 16.4348C90.6131 15.987 90.4858 15.6319 90.2281 15.3756V15.3725Z" fill="#F9F9F9"/>
<path d="M94.4597 19.2018C94.0461 19.0257 93.7215 18.7849 93.4829 18.4792C93.2443 18.1734 93.1107 17.8307 93.082 17.4508H94.9178C94.9401 17.6546 95.0356 17.8183 95.2105 17.9449C95.3855 18.0715 95.5987 18.1333 95.8501 18.1333C96.0823 18.1333 96.2605 18.0901 96.3878 18.0005C96.515 17.914 96.5786 17.7998 96.5786 17.6577C96.5786 17.4879 96.4896 17.3644 96.3082 17.2841C96.1269 17.2038 95.8341 17.1142 95.4301 17.0154C94.9942 16.9166 94.6347 16.8147 94.3451 16.7035C94.0556 16.5954 93.8074 16.4225 93.5975 16.1878C93.3875 15.9531 93.2825 15.635 93.2825 15.2336C93.2825 14.897 93.3779 14.5882 93.5688 14.3103C93.7597 14.0323 94.0429 13.8131 94.4151 13.6525C94.7874 13.4919 95.2296 13.4116 95.7451 13.4116C96.5055 13.4116 97.1036 13.5938 97.5427 13.9582C97.9817 14.3226 98.2331 14.8074 98.2967 15.4127H96.5818C96.5532 15.2089 96.4609 15.0483 96.305 14.9279C96.1491 14.8074 95.9455 14.7488 95.691 14.7488C95.4746 14.7488 95.306 14.7889 95.1915 14.8692C95.0769 14.9495 95.0165 15.0607 95.0165 15.1996C95.0165 15.3695 95.1087 15.4961 95.2933 15.5795C95.4778 15.6628 95.7642 15.7493 96.1555 15.8327C96.6041 15.9438 96.97 16.055 97.2532 16.1631C97.5363 16.2712 97.7845 16.4472 97.9977 16.6912C98.2108 16.932 98.3222 17.2594 98.3285 17.667C98.3285 18.0098 98.2299 18.3186 98.0295 18.5872C97.829 18.859 97.5459 19.069 97.1736 19.2234C96.8014 19.3778 96.3687 19.455 95.8755 19.455C95.3474 19.455 94.8765 19.3685 94.466 19.1925L94.4597 19.2018Z" fill="#F9F9F9"/>
<path d="M103.082 19.3809L101.236 16.9166V19.3809H99.3816V11.5835H101.236V15.8914L103.072 13.5012H105.363L102.846 16.4503L105.385 19.3778H103.085L103.082 19.3809Z" fill="#F9F9F9"/>
<path d="M105.732 14.8381C105.968 14.3811 106.289 14.0291 106.693 13.7851C107.097 13.538 107.549 13.4176 108.048 13.4176C108.475 13.4176 108.85 13.501 109.172 13.6708C109.493 13.8407 109.741 14.0599 109.916 14.3348V13.5041H111.771V19.3838H109.916V18.55C109.735 18.8248 109.483 19.0441 109.162 19.2139C108.841 19.3838 108.465 19.4672 108.039 19.4672C107.546 19.4672 107.097 19.3436 106.693 19.0935C106.289 18.8434 105.968 18.4882 105.732 18.0281C105.497 17.568 105.379 17.0368 105.379 16.4316C105.379 15.8263 105.497 15.2983 105.732 14.8412V14.8381ZM109.531 15.3755C109.273 15.1161 108.962 14.9864 108.592 14.9864C108.223 14.9864 107.912 15.1161 107.654 15.3693C107.396 15.6256 107.269 15.9776 107.269 16.4285C107.269 16.8793 107.396 17.2345 107.654 17.497C107.912 17.7594 108.223 17.8922 108.592 17.8922C108.962 17.8922 109.273 17.7625 109.531 17.5031C109.789 17.2437 109.916 16.8886 109.916 16.4378C109.916 15.9869 109.789 15.6349 109.531 15.3724V15.3755ZM110.056 12.0372L107.441 13.1026V11.8581L110.056 10.6353V12.0372Z" fill="#F9F9F9"/>
<path d="M66.8653 31.3409H64.0209L63.5659 32.6472H61.6219L64.3804 25.2512H66.528L69.2865 32.6472H67.3234L66.8685 31.3409H66.8653ZM66.388 29.9513L65.4431 27.243L64.5109 29.9513H66.388Z" fill="#F9F9F9"/>
<path d="M70.9474 32.4681C70.5337 32.2921 70.2092 32.0512 69.9706 31.7455C69.732 31.4398 69.5983 31.097 69.5697 30.7172H71.4055C71.4278 30.921 71.5232 31.0847 71.6982 31.2113C71.8732 31.3379 72.0864 31.3996 72.3377 31.3996C72.57 31.3996 72.7482 31.3564 72.8754 31.2669C73.0027 31.1804 73.0663 31.0661 73.0663 30.9241C73.0663 30.7542 72.9772 30.6307 72.7959 30.5504C72.6145 30.4701 72.3218 30.3806 71.9177 30.2818C71.4819 30.1829 71.1223 30.081 70.8328 29.9699C70.5433 29.8618 70.2951 29.6889 70.0851 29.4542C69.8751 29.2195 69.7701 28.9014 69.7701 28.4999C69.7701 28.1633 69.8656 27.8545 70.0565 27.5766C70.2474 27.2987 70.5306 27.0794 70.9028 26.9188C71.2751 26.7583 71.7173 26.678 72.2327 26.678C72.9931 26.678 73.5913 26.8602 74.0304 27.2246C74.4694 27.589 74.7208 28.0738 74.7844 28.6791H73.0695C73.0409 28.4752 72.9486 28.3147 72.7927 28.1942C72.6368 28.0738 72.4332 28.0151 72.1786 28.0151C71.9623 28.0151 71.7937 28.0553 71.6791 28.1356C71.5646 28.2158 71.5041 28.327 71.5041 28.466C71.5041 28.6358 71.5964 28.7624 71.7809 28.8458C71.9655 28.9292 72.2518 29.0157 72.6432 29.099C73.0918 29.2102 73.4577 29.3214 73.7408 29.4295C74.024 29.5375 74.2722 29.7136 74.4853 29.9575C74.6985 30.1984 74.8099 30.5257 74.8162 30.9333C74.8162 31.2761 74.7176 31.5849 74.5171 31.8536C74.3167 32.1253 74.0335 32.3353 73.6613 32.4897C73.289 32.6441 72.8563 32.7213 72.3632 32.7213C71.835 32.7213 71.3641 32.6349 70.9537 32.4589L70.9474 32.4681Z" fill="#F9F9F9"/>
<path d="M77.0084 32.3631C76.5343 32.116 76.1621 31.7671 75.8916 31.31C75.6212 30.853 75.4844 30.3187 75.4844 29.7073C75.4844 29.0959 75.6212 28.5709 75.898 28.1108C76.1716 27.6506 76.5502 27.2986 77.0275 27.0516C77.5047 26.8045 78.0392 26.6841 78.6342 26.6841C79.2292 26.6841 79.7637 26.8076 80.2409 27.0516C80.7182 27.2986 81.0936 27.6506 81.3704 28.1108C81.644 28.5709 81.784 29.102 81.784 29.7073C81.784 30.3126 81.644 30.8437 81.3672 31.3038C81.0872 31.764 80.7086 32.116 80.2282 32.3631C79.7478 32.6101 79.2101 32.7305 78.6151 32.7305C78.0201 32.7305 77.4888 32.607 77.0147 32.3631H77.0084ZM79.5155 30.7943C79.7637 30.5411 79.8909 30.1798 79.8909 29.7104C79.8909 29.241 79.77 28.8766 79.5282 28.6265C79.2864 28.3733 78.9874 28.2466 78.6342 28.2466C78.281 28.2466 77.9724 28.3702 77.7338 28.6203C77.4952 28.8704 77.3743 29.2317 77.3743 29.7104C77.3743 30.189 77.492 30.5442 77.7274 30.7943C77.9629 31.0475 78.2588 31.1741 78.6119 31.1741C78.9651 31.1741 79.2673 31.0475 79.5187 30.7943H79.5155Z" fill="#F9F9F9"/>
<path d="M82.7639 28.1078C83.0216 27.6507 83.3779 27.2987 83.8393 27.0547C84.2974 26.8077 84.8256 26.6873 85.4174 26.6873C86.1778 26.6873 86.8109 26.8818 87.3232 27.2678C87.8322 27.6538 88.1695 28.1973 88.3286 28.9014H86.3528C86.1873 28.4505 85.8628 28.2282 85.3855 28.2282C85.0451 28.2282 84.7747 28.3579 84.571 28.6142C84.3674 28.8705 84.2656 29.238 84.2656 29.7136C84.2656 30.1891 84.3674 30.5566 84.571 30.8129C84.7747 31.0692 85.0451 31.1989 85.3855 31.1989C85.8628 31.1989 86.1841 30.9735 86.3528 30.5257H88.3286C88.1695 31.2144 87.8322 31.7548 87.32 32.147C86.8046 32.5392 86.1714 32.7368 85.4205 32.7368C84.8256 32.7368 84.3006 32.6133 83.8425 32.3693C83.3843 32.1223 83.0248 31.7733 82.7671 31.3163C82.5094 30.8593 82.3821 30.325 82.3821 29.7136C82.3821 29.1021 82.5094 28.5679 82.7671 28.1109L82.7639 28.1078Z" fill="#F9F9F9"/>
<path d="M89.3817 25.8812C89.1749 25.6959 89.0731 25.4643 89.0731 25.1925C89.0731 24.9208 89.1749 24.6768 89.3817 24.4915C89.5885 24.3063 89.8526 24.2136 90.1803 24.2136C90.508 24.2136 90.7626 24.3063 90.9662 24.4915C91.1698 24.6768 91.2748 24.9115 91.2748 25.1925C91.2748 25.4736 91.173 25.6959 90.9662 25.8812C90.7594 26.0665 90.4985 26.1591 90.1803 26.1591C89.8622 26.1591 89.5885 26.0665 89.3817 25.8812ZM91.103 26.7706V32.6503H89.2481V26.7706H91.103Z" fill="#F9F9F9"/>
<path d="M92.3948 28.1078C92.6302 27.6507 92.9516 27.2987 93.3556 27.0547C93.7597 26.8077 94.2115 26.6873 94.711 26.6873C95.1374 26.6873 95.5128 26.7706 95.8341 26.9405C96.1555 27.1103 96.4036 27.3296 96.5786 27.6044V26.7737H98.4335V32.6534H96.5786V31.8196C96.3973 32.0945 96.1459 32.3137 95.8246 32.4836C95.5032 32.6534 95.1278 32.7368 94.7015 32.7368C94.2083 32.7368 93.7597 32.6133 93.3556 32.3631C92.9516 32.113 92.6302 31.7579 92.3948 31.2978C92.1593 30.8376 92.0416 30.3065 92.0416 29.7012C92.0416 29.096 92.1593 28.5679 92.3948 28.1109V28.1078ZM96.1937 28.6451C95.9359 28.3857 95.6242 28.256 95.2551 28.256C94.886 28.256 94.5742 28.3857 94.3165 28.6389C94.0588 28.8952 93.9315 29.2473 93.9315 29.6981C93.9315 30.149 94.0588 30.5041 94.3165 30.7666C94.5742 31.0291 94.886 31.1619 95.2551 31.1619C95.6242 31.1619 95.9359 31.0322 96.1937 30.7728C96.4514 30.5134 96.5786 30.1583 96.5786 29.7074C96.5786 29.2565 96.4514 28.9045 96.1937 28.642V28.6451Z" fill="#F9F9F9"/>
<path d="M99.7825 28.1078C100.04 27.6507 100.397 27.2987 100.858 27.0547C101.316 26.8077 101.844 26.6873 102.436 26.6873C103.196 26.6873 103.83 26.8818 104.342 27.2678C104.851 27.6538 105.188 28.1973 105.347 28.9014H103.371C103.206 28.4505 102.881 28.2282 102.404 28.2282C102.064 28.2282 101.793 28.3579 101.59 28.6142C101.386 28.8705 101.284 29.238 101.284 29.7136C101.284 30.1891 101.386 30.5566 101.59 30.8129C101.793 31.0692 102.064 31.1989 102.404 31.1989C102.881 31.1989 103.203 30.9735 103.371 30.5257H105.347C105.188 31.2144 104.851 31.7548 104.339 32.147C103.823 32.5392 103.19 32.7368 102.439 32.7368C101.844 32.7368 101.319 32.6133 100.861 32.3693C100.403 32.1223 100.043 31.7733 99.7857 31.3163C99.528 30.8593 99.4008 30.325 99.4008 29.7136C99.4008 29.1021 99.528 28.5679 99.7857 28.1109L99.7825 28.1078Z" fill="#F9F9F9"/>
<path d="M111.968 30.1396H107.768C107.797 30.504 107.918 30.785 108.131 30.9765C108.344 31.1711 108.608 31.2668 108.917 31.2668C109.382 31.2668 109.703 31.0784 109.884 30.6986H111.86C111.758 31.0846 111.577 31.4335 111.313 31.7424C111.049 32.0512 110.718 32.2951 110.32 32.468C109.922 32.6441 109.477 32.7305 108.984 32.7305C108.389 32.7305 107.861 32.607 107.399 32.3631C106.935 32.116 106.575 31.7671 106.314 31.31C106.054 30.853 105.923 30.3187 105.923 29.7073C105.923 29.0959 106.05 28.5616 106.308 28.1046C106.566 27.6476 106.925 27.2955 107.39 27.0516C107.854 26.8045 108.386 26.6841 108.984 26.6841C109.582 26.6841 110.091 26.8045 110.546 27.0423C111.001 27.2801 111.357 27.6229 111.615 28.0645C111.873 28.506 112 29.0218 112 29.6116C112 29.7814 111.99 29.9544 111.968 30.1396ZM110.101 29.1391C110.101 28.8303 109.992 28.5832 109.776 28.4011C109.56 28.2189 109.289 28.1262 108.962 28.1262C108.634 28.1262 108.389 28.2127 108.176 28.3887C107.963 28.5647 107.829 28.8149 107.778 29.136H110.101V29.1391Z" fill="#F9F9F9"/>
<path d="M63.7537 45.506C63.1555 45.1817 62.6815 44.7309 62.3315 44.1534C61.9815 43.5729 61.8065 42.9213 61.8065 42.1987C61.8065 41.4761 61.9815 40.8245 62.3315 40.2501C62.6815 39.6757 63.1555 39.2248 63.7537 38.9006C64.3518 38.5764 65.0073 38.4158 65.7231 38.4158C66.439 38.4158 67.0944 38.5764 67.6925 38.9006C68.2907 39.2248 68.7584 39.6726 69.1052 40.2501C69.4488 40.8276 69.6206 41.4761 69.6206 42.1987C69.6206 42.9213 69.4456 43.5729 69.0988 44.1534C68.752 44.734 68.2812 45.1848 67.6894 45.506C67.0944 45.8302 66.4422 45.9908 65.7263 45.9908C65.0104 45.9908 64.3518 45.8302 63.7569 45.506H63.7537ZM67.1835 43.7581C67.5494 43.366 67.7307 42.8441 67.7307 42.1987C67.7307 41.5533 67.5494 41.0252 67.1835 40.633C66.8176 40.2439 66.3308 40.0494 65.7231 40.0494C65.1154 40.0494 64.6191 40.2439 64.2532 40.6299C63.8873 41.0159 63.706 41.5409 63.706 42.1987C63.706 42.8564 63.8873 43.3721 64.2532 43.7643C64.6191 44.1534 65.1091 44.348 65.7231 44.348C66.3372 44.348 66.8176 44.1503 67.1835 43.7581Z" fill="#F9F9F9"/>
<path d="M74.3898 45.9165L72.5445 43.4523V45.9165H70.6896V38.1191H72.5445V42.427L74.3803 40.0368H76.6711L74.1544 42.9859L76.6933 45.9134H74.393L74.3898 45.9165Z" fill="#F9F9F9"/>
<path d="M82.7162 40.6454C83.1394 41.09 83.3526 41.7046 83.3526 42.4828V45.9167H81.5072V42.7236C81.5072 42.3315 81.4022 42.0257 81.1922 41.8065C80.9822 41.5903 80.6991 41.4792 80.3459 41.4792C79.9927 41.4792 79.7096 41.5872 79.4996 41.8065C79.2896 42.0257 79.1846 42.3284 79.1846 42.7236V45.9167H77.3297V40.037H79.1846V40.8152C79.3723 40.5558 79.6269 40.3489 79.945 40.1976C80.2632 40.0463 80.6227 39.9722 81.0204 39.9722C81.7299 39.9722 82.2962 40.1945 82.7194 40.6423L82.7162 40.6454Z" fill="#F9F9F9"/>
<path d="M84.6188 41.3772C84.8542 40.9202 85.1756 40.5681 85.5796 40.3242C85.9837 40.0771 86.4355 39.9567 86.935 39.9567C87.3614 39.9567 87.7368 40.0401 88.0581 40.2099C88.3795 40.3797 88.6276 40.599 88.8026 40.8738V40.0431H90.6575V45.9228H88.8026V45.0891C88.6213 45.3639 88.3699 45.5832 88.0486 45.753C87.7272 45.9228 87.3518 46.0062 86.9255 46.0062C86.4323 46.0062 85.9837 45.8827 85.5796 45.6326C85.1756 45.3824 84.8542 45.0273 84.6188 44.5672C84.3833 44.1071 84.2656 43.5759 84.2656 42.9706C84.2656 42.3654 84.3833 41.8373 84.6188 41.3803V41.3772ZM88.4177 41.9145C88.1599 41.6551 87.8482 41.5254 87.4791 41.5254C87.11 41.5254 86.7982 41.6551 86.5405 41.9083C86.2828 42.1647 86.1555 42.5167 86.1555 42.9676C86.1555 43.4184 86.2828 43.7735 86.5405 44.036C86.7982 44.2985 87.11 44.4313 87.4791 44.4313C87.8482 44.4313 88.1599 44.3016 88.4177 44.0422C88.6754 43.7828 88.8026 43.4277 88.8026 42.9768C88.8026 42.526 88.6754 42.1739 88.4177 41.9114V41.9145ZM88.9426 38.5763L86.3273 39.6417V38.3972L88.9426 37.1743V38.5763Z" fill="#F9F9F9"/>
<path d="M94.6569 40.2531C94.9815 40.0678 95.3442 39.9752 95.7419 39.9752V41.8836H95.2328C94.7683 41.8836 94.4215 41.9793 94.1892 42.1739C93.957 42.3684 93.8424 42.705 93.8424 43.1899V45.9197H91.9875V40.04H93.8424V41.019C94.0588 40.6947 94.3324 40.4415 94.6569 40.2562V40.2531ZM95.8087 38.8048L94.1256 39.6386L92.4425 38.8048V37.5603L94.1256 38.4775L95.8087 37.5603V38.8048Z" fill="#F9F9F9"/>
<path d="M102.506 40.0401V45.9198H100.651V45.1199C100.463 45.3793 100.209 45.5893 99.8844 45.7468C99.563 45.9043 99.2067 45.9846 98.8153 45.9846C98.3508 45.9846 97.9436 45.8858 97.5872 45.6851C97.2309 45.4843 96.9573 45.1941 96.7632 44.8173C96.5691 44.4375 96.4705 43.9928 96.4705 43.4802V40.0462H98.3158V43.2393C98.3158 43.6315 98.4208 43.9372 98.6308 44.1565C98.8408 44.3757 99.1239 44.4838 99.4771 44.4838C99.8303 44.4838 100.123 44.3757 100.336 44.1565C100.546 43.9403 100.651 43.6346 100.651 43.2393V40.0462H102.506V40.0401ZM100.782 38.5763L98.1663 39.6417V38.3972L100.782 37.1743V38.5763Z" fill="#F9F9F9"/>
<path d="M22.9587 0L23.7764 2.32532L26.2994 2.36856L24.2823 3.84466L25.0236 6.19777L22.9587 4.78343L20.8938 6.19777L21.6351 3.84466L19.618 2.36856L22.141 2.32532L22.9587 0Z" fill="#F1A225"/>
<path d="M3.34072 19.3469L4.1584 21.6722L6.68144 21.7155L4.66428 23.1916L5.4056 25.5447L3.34072 24.1304L1.27584 25.5447L2.01716 23.1916L0 21.7155L2.52304 21.6722L3.34072 19.3469Z" fill="#F1A225"/>
<path d="M5.88283 9.59473L6.70051 11.9231L9.22355 11.9633L7.20639 13.4425L7.94772 15.7925L5.88283 14.3812L3.81795 15.7925L4.55927 13.4425L2.54211 11.9633L5.06515 11.9231L5.88283 9.59473Z" fill="#F1A225"/>
<path d="M13.0956 2.68359L13.9133 5.00892L16.4363 5.04906L14.4192 6.52825L15.1605 8.88136L13.0956 7.46703L11.0307 8.88136L11.7689 6.52825L9.75488 5.04906L12.2747 5.00892L13.0956 2.68359Z" fill="#F1A225"/>
<path d="M39.9964 9.59473L39.1755 11.9231L36.6556 11.9633L38.6696 13.4425L37.9315 15.7925L39.9964 14.3812L42.0612 15.7925L41.3199 13.4425L43.3371 11.9633L40.814 11.9231L39.9964 9.59473Z" fill="#F1A225"/>
<path d="M5.88283 28.9136L6.70051 31.2389L9.22355 31.2821L7.20639 32.7582L7.94772 35.1113L5.88283 33.697L3.81795 35.1113L4.55927 32.7582L2.54211 31.2821L5.06515 31.2389L5.88283 28.9136Z" fill="#F1A225"/>
<path d="M32.7836 2.68359L31.9659 5.00892L29.4429 5.04906L31.46 6.52825L30.7187 8.88136L32.7836 7.46703L34.8485 8.88136L34.1072 6.52825L36.1243 5.04906L33.6013 5.00892L32.7836 2.68359Z" fill="#F1A225"/>
<path d="M42.7103 19.3469L43.5312 21.6722L46.051 21.7155L44.037 23.1916L44.7752 25.5447L42.7103 24.1304L40.6454 25.5447L41.3867 23.1916L39.3696 21.7155L41.8926 21.6722L42.7103 19.3469Z" fill="#F1A225"/>
<path d="M53.2415 46H35.7839L14.2951 25.3315H31.7559L53.2415 46Z" fill="#F9F9F9"/>
<path d="M20.9956 39.4966H14.2951V46.0001H20.9956V39.4966Z" fill="#F9F9F9"/>
</g>
<defs>
<clipPath id="clip0_12_70">
<rect width="112" height="46" fill="white"/>
</clipPath>
</defs>
</svg>
