<svg width="191" height="36" viewBox="0 0 191 36" fill="none" xmlns="http://www.w3.org/2000/svg">
<g clip-path="url(#clip0_842_154)">
<path d="M43.28 10.7L39.35 15.28L33.36 5.76H9.92L7.14 10.18L9.54 12.99H33.71L33.72 13.01L36.94 18.11L21.64 36L9.49 21.79H17.07L21.64 27.13L28.8 18.76H6.89L0 10.7L6.74 0H36.54L43.28 10.7Z" fill="#EF4136"/>
<path d="M61.1301 25.2402C59.8501 25.2402 58.6601 25.0302 57.5601 24.6002C56.4601 24.1702 55.5101 23.5702 54.7101 22.8002C53.9001 22.0302 53.2801 21.1202 52.8401 20.0902C52.4001 19.0602 52.1801 17.9302 52.1801 16.7102C52.1801 15.4902 52.4001 14.3502 52.8401 13.3102C53.2801 12.2802 53.9101 11.3802 54.7101 10.6102C55.5201 9.84018 56.4601 9.25018 57.5501 8.82018C58.6401 8.39018 59.8301 8.18018 61.1301 8.18018C62.4301 8.18018 63.5901 8.39018 64.6801 8.81018C65.7701 9.23018 66.7101 9.82018 67.5101 10.5902C68.3101 11.3602 68.9301 12.2602 69.3701 13.3002C69.8101 14.3402 70.0301 15.4802 70.0301 16.7102C70.0301 17.9402 69.8101 19.0802 69.3701 20.1102C68.9301 21.1402 68.3101 22.0502 67.5101 22.8202C66.7101 23.5902 65.7701 24.1902 64.6801 24.6102C63.5901 25.0302 62.4101 25.2402 61.1301 25.2402ZM61.1301 22.5402C61.9701 22.5402 62.7401 22.4002 63.4401 22.1102C64.1401 21.8302 64.7501 21.4202 65.2801 20.9002C65.8101 20.3802 66.2101 19.7602 66.5001 19.0502C66.7901 18.3402 66.9401 17.5602 66.9401 16.7002C66.9401 15.8402 66.8001 15.0702 66.5101 14.3502C66.2301 13.6402 65.8201 13.0202 65.2901 12.5002C64.7601 11.9802 64.1401 11.5802 63.4401 11.2902C62.7401 11.0102 61.9701 10.8602 61.1301 10.8602C60.2901 10.8602 59.5201 11.0002 58.8001 11.2902C58.0801 11.5802 57.4601 11.9802 56.9401 12.5102C56.4201 13.0402 56.0101 13.6602 55.7101 14.3602C55.4101 15.0602 55.2601 15.8402 55.2601 16.6902C55.2601 17.5402 55.4101 18.3002 55.7101 19.0102C56.0101 19.7202 56.4201 20.3402 56.9401 20.8702C57.4601 21.4002 58.0801 21.8102 58.8001 22.0902C59.5201 22.3702 60.3001 22.5202 61.1301 22.5202V22.5402Z" fill="black"/>
<path d="M73.05 24.9999V7.41992H75.99V24.9999H73.05ZM75.44 22.1799L75.51 18.4599L82.12 12.3499H85.67L80.06 17.9599L78.47 19.2899L75.44 22.1799ZM82.59 24.9999L77.92 19.2899L79.79 16.9199L86.16 24.9999H82.58H82.59Z" fill="black"/>
<path d="M95.15 12.1802C96.18 12.1802 97.08 12.3802 97.86 12.7702C98.64 13.1602 99.27 13.7702 99.73 14.5902C100.2 15.4102 100.43 16.4602 100.43 17.7402V24.9902H97.47V18.1202C97.47 17.0002 97.21 16.1602 96.69 15.6102C96.17 15.0602 95.43 14.7802 94.46 14.7802C93.76 14.7802 93.15 14.9202 92.61 15.2102C92.07 15.4902 91.66 15.9202 91.37 16.4802C91.08 17.0402 90.93 17.7502 90.93 18.6002V25.0002H87.99V12.3502H90.81V15.7802L90.31 14.7102C90.74 13.9002 91.37 13.2802 92.22 12.8402C93.06 12.4002 94.04 12.1802 95.15 12.1802Z" fill="black"/>
<path d="M109.91 25.1699C108.63 25.1699 107.48 24.8899 106.46 24.3299C105.44 23.7699 104.64 22.9999 104.06 22.0199C103.48 21.0399 103.18 19.9299 103.18 18.6799C103.18 17.4299 103.47 16.2799 104.06 15.3199C104.64 14.3599 105.44 13.5899 106.45 13.0299C107.46 12.4699 108.61 12.1899 109.91 12.1899C111.21 12.1899 112.39 12.4699 113.4 13.0299C114.42 13.5899 115.22 14.3499 115.79 15.3199C116.37 16.2799 116.65 17.3999 116.65 18.6799C116.65 19.9599 116.36 21.0599 115.79 22.0299C115.21 22.9999 114.41 23.7699 113.39 24.3299C112.36 24.8899 111.2 25.1699 109.91 25.1699ZM109.91 22.6499C110.64 22.6499 111.28 22.4899 111.85 22.1599C112.42 21.8399 112.86 21.3699 113.19 20.7599C113.51 20.1499 113.68 19.4499 113.68 18.6599C113.68 17.8699 113.52 17.1599 113.19 16.5599C112.87 15.9699 112.42 15.5099 111.85 15.1899C111.28 14.8699 110.64 14.6999 109.93 14.6999C109.22 14.6999 108.58 14.8599 108.01 15.1899C107.44 15.5099 106.99 15.9699 106.66 16.5599C106.33 17.1499 106.16 17.8499 106.16 18.6599C106.16 19.4699 106.33 20.1499 106.66 20.7599C106.99 21.3699 107.44 21.8299 108.01 22.1599C108.58 22.4799 109.21 22.6499 109.91 22.6499Z" fill="black"/>
<path d="M125.05 25.3301C123.68 25.3301 122.36 25.1601 121.11 24.8201C119.85 24.4801 118.84 24.0501 118.07 23.5301L119.61 20.0501C120.35 20.5201 121.21 20.9101 122.18 21.2201C123.15 21.5301 124.12 21.6801 125.08 21.6801C125.74 21.6801 126.27 21.6201 126.66 21.5101C127.05 21.4001 127.33 21.2401 127.51 21.0401C127.69 20.8301 127.78 20.5901 127.78 20.3101C127.78 19.9501 127.61 19.6601 127.26 19.4501C126.91 19.2401 126.46 19.0601 125.9 18.9101C125.34 18.7601 124.73 18.6201 124.08 18.4801C123.42 18.3501 122.76 18.1701 122.08 17.9501C121.4 17.7301 120.78 17.4401 120.23 17.0701C119.68 16.7101 119.23 16.2301 118.89 15.6501C118.55 15.0701 118.38 14.3301 118.38 13.4501C118.38 12.4701 118.65 11.5801 119.19 10.7701C119.73 9.9601 120.54 9.3201 121.63 8.8301C122.72 8.3401 124.08 8.1001 125.7 8.1001C126.79 8.1001 127.86 8.2201 128.91 8.4701C129.96 8.7201 130.89 9.0801 131.69 9.5701L130.27 13.0301C129.48 12.5901 128.7 12.2601 127.92 12.0601C127.15 11.8601 126.4 11.7501 125.67 11.7501C125.02 11.7501 124.5 11.8201 124.11 11.9601C123.72 12.1001 123.43 12.2801 123.26 12.5001C123.09 12.7201 123 12.9601 123 13.2101C123 13.5901 123.17 13.8901 123.52 14.1001C123.87 14.3101 124.32 14.4901 124.87 14.6201C125.42 14.7501 126.03 14.8901 126.71 15.0301C127.38 15.1701 128.05 15.3501 128.71 15.5601C129.37 15.7701 129.99 16.0601 130.55 16.4101C131.11 16.7701 131.56 17.2301 131.91 17.8101C132.26 18.3901 132.43 19.1101 132.43 19.9801C132.43 20.9401 132.16 21.8301 131.61 22.6501C131.07 23.4601 130.25 24.1201 129.16 24.6001C128.07 25.0901 126.7 25.3301 125.06 25.3301H125.05Z" fill="black"/>
<path d="M139.73 25.2101C138.69 25.2101 137.75 25.0001 136.92 24.5901C136.09 24.1801 135.44 23.5401 134.98 22.6601C134.51 21.7801 134.28 20.6701 134.28 19.3101V12.1301H138.78V18.5701C138.78 19.5601 138.97 20.2801 139.34 20.7101C139.71 21.1401 140.24 21.3601 140.92 21.3601C141.36 21.3601 141.77 21.2601 142.14 21.0501C142.51 20.8501 142.8 20.5201 143 20.0701C143.2 19.6201 143.31 19.0501 143.31 18.3501V12.1201H147.81V24.9801H143.55V21.3601L144.38 22.3801C143.92 23.3301 143.28 24.0301 142.45 24.5001C141.62 24.9701 140.72 25.2001 139.74 25.2001L139.73 25.2101Z" fill="black"/>
<path d="M150.72 29.5999V12.1399H155.03V14.3399L154.98 18.5999L155.22 22.8399V29.5899H150.72V29.5999ZM158.8 25.2099C157.71 25.2099 156.78 24.9699 156 24.4899C155.23 24.0099 154.64 23.2799 154.24 22.2999C153.84 21.3199 153.64 20.0899 153.64 18.5999C153.64 17.1099 153.83 15.7899 154.21 14.8199C154.59 13.8499 155.16 13.1199 155.93 12.6399C156.7 12.1599 157.66 11.9199 158.81 11.9199C159.96 11.9199 161.04 12.1999 162 12.7499C162.96 13.2999 163.71 14.0699 164.27 15.0599C164.83 16.0499 165.11 17.2299 165.11 18.5999C165.11 19.9699 164.83 21.1099 164.27 22.1099C163.71 23.1099 162.95 23.8699 162 24.4099C161.04 24.9499 159.98 25.2199 158.81 25.2199L158.8 25.2099ZM157.86 21.6399C158.37 21.6399 158.82 21.5199 159.22 21.2799C159.62 21.0399 159.95 20.6999 160.19 20.2399C160.43 19.7799 160.56 19.2399 160.56 18.6099C160.56 17.9299 160.44 17.3699 160.19 16.9199C159.94 16.4699 159.62 16.1299 159.22 15.8899C158.82 15.6499 158.36 15.5299 157.86 15.5299C157.36 15.5299 156.9 15.6499 156.5 15.8899C156.1 16.1299 155.77 16.4699 155.53 16.9199C155.28 17.3699 155.16 17.9399 155.16 18.6099C155.16 19.2399 155.28 19.7899 155.53 20.2399C155.77 20.6999 156.1 21.0499 156.5 21.2799C156.9 21.5199 157.36 21.6399 157.86 21.6399Z" fill="black"/>
<path d="M173.94 25.2099C172.41 25.2099 171.08 24.9199 169.95 24.3499C168.82 23.7699 167.94 22.9799 167.32 21.9799C166.7 20.9799 166.38 19.8399 166.38 18.5799C166.38 17.3199 166.68 16.1399 167.29 15.1299C167.9 14.1299 168.73 13.3399 169.8 12.7699C170.87 12.1999 172.08 11.9199 173.44 11.9199C174.7 11.9199 175.85 12.1799 176.89 12.7099C177.92 13.2399 178.75 13.9999 179.38 14.9799C180 15.9699 180.32 17.1699 180.32 18.5899C180.32 18.7499 180.32 18.9299 180.3 19.1299C180.28 19.3399 180.27 19.5199 180.25 19.6999H170.09V17.3299H177.86L176.15 17.9899C176.17 17.4199 176.06 16.9199 175.83 16.4899C175.6 16.0599 175.29 15.7199 174.89 15.4799C174.49 15.2399 174.03 15.1199 173.49 15.1199C172.95 15.1199 172.46 15.2399 172.05 15.4799C171.64 15.7199 171.33 16.0499 171.11 16.4899C170.9 16.9199 170.79 17.4299 170.79 18.0199V18.7099C170.79 19.3399 170.92 19.8899 171.18 20.3399C171.44 20.7999 171.82 21.1499 172.31 21.3899C172.8 21.6399 173.38 21.7599 174.06 21.7599C174.74 21.7599 175.25 21.6699 175.69 21.4899C176.13 21.3099 176.57 21.0299 177.02 20.6499L179.37 23.1399C178.77 23.7999 178.02 24.3099 177.12 24.6699C176.22 25.0299 175.16 25.1999 173.95 25.1999L173.94 25.2099Z" fill="black"/>
<path d="M182.4 25.0002V12.1402H186.71V15.9102L186.05 14.8402C186.44 13.8802 187.06 13.1502 187.91 12.6602C188.75 12.1702 189.79 11.9302 191 11.9302V16.0002C190.79 15.9702 190.61 15.9502 190.46 15.9402C190.3 15.9402 190.14 15.9302 189.99 15.9302C189.07 15.9302 188.33 16.1802 187.76 16.6802C187.19 17.1802 186.91 17.9902 186.91 19.1102V25.0102H182.41L182.4 25.0002Z" fill="black"/>
</g>
<defs>
<clipPath id="clip0_842_154">
<rect width="191" height="36" fill="white"/>
</clipPath>
</defs>
</svg>
