<svg width="85" height="36" viewBox="0 0 85 36" fill="none" xmlns="http://www.w3.org/2000/svg">
<g clip-path="url(#clip0_842_165)">
<path d="M45.3101 13.69C44.8101 13.69 44.4101 13.55 44.1001 13.26C43.7501 12.93 43.5801 12.47 43.5801 11.9V8.01998C43.5801 7.43998 43.7501 6.98998 44.1001 6.65998C44.4101 6.37998 44.8101 6.22998 45.3101 6.22998C45.8101 6.22998 46.2101 6.36998 46.5201 6.65998C46.8701 6.98998 47.0401 7.44998 47.0401 8.01998V11.9C47.0401 12.48 46.8701 12.93 46.5201 13.26C46.2101 13.54 45.8101 13.69 45.3101 13.69ZM45.3101 7.37998C45.1201 7.37998 44.9701 7.41998 44.8801 7.50998C44.7801 7.60998 44.7201 7.77998 44.7201 8.02998V11.91C44.7201 12.16 44.7701 12.33 44.8801 12.43C44.9701 12.51 45.1101 12.56 45.3101 12.56C45.5101 12.56 45.6501 12.52 45.7401 12.43C45.8401 12.34 45.9001 12.17 45.9001 11.91V8.02998C45.9001 7.76998 45.8501 7.59998 45.7401 7.50998C45.6601 7.42998 45.5101 7.37998 45.3101 7.37998Z" fill="#1A1A1A"/>
<path d="M50.49 9.78008L51.96 13.6101H50.73L49.84 11.2801L49.44 12.1901V13.6201H48.29V6.33008H49.44V9.29008L50.71 6.33008H51.95L50.48 9.79008L50.49 9.78008Z" fill="#1A1A1A"/>
<path d="M56.56 6.31982V13.6098H55.89L54.14 9.90982V13.6098H52.99V6.31982H53.66L55.41 10.0098V6.31982H56.56Z" fill="#1A1A1A"/>
<path d="M60.4901 13.6098L60.2801 12.4498H58.9701L58.7601 13.6098H57.5901L59.0501 6.31982H60.2001L61.6601 13.6098H60.4901ZM59.1601 11.3098H60.0801L59.6201 8.68982L59.1601 11.3098Z" fill="#1A1A1A"/>
<path d="M64.47 13.6098H62.74V6.31982H64.47C64.96 6.31982 65.37 6.46982 65.68 6.75982C66.03 7.07982 66.2 7.52982 66.2 8.10982V11.8598C66.2 12.1398 66.16 12.3998 66.07 12.6198C65.97 12.8598 65.84 13.0498 65.66 13.1998C65.36 13.4698 64.96 13.6098 64.46 13.6098H64.47ZM63.88 12.4598H64.46C64.67 12.4598 64.81 12.4198 64.9 12.3498C65 12.2698 65.05 12.0998 65.05 11.8598V8.10982C65.05 7.86982 65 7.68982 64.89 7.58982C64.8 7.50982 64.66 7.45982 64.46 7.45982H63.88V12.4598Z" fill="#1A1A1A"/>
<path d="M69.1301 11.2401L69.9901 6.31006H71.1601L69.7001 13.6001H68.5501L67.0901 6.31006H68.2601L69.1201 11.2401H69.1301Z" fill="#1A1A1A"/>
<path d="M75.24 7.45982H73.36V9.28982H74.65V10.4398H73.36V12.4598H75.24V13.6098H72.22V6.31982H75.24V7.46982V7.45982Z" fill="#1A1A1A"/>
<path d="M79.9 13.6098H78.73L78.14 10.6798H77.62V13.6098H76.47V6.31982H78.2C78.69 6.31982 79.1 6.46982 79.41 6.75982C79.76 7.07982 79.93 7.52982 79.93 8.10982V8.88982C79.93 9.47982 79.76 9.93982 79.41 10.2498C79.36 10.2998 79.31 10.3398 79.24 10.3898L79.9 13.6098ZM78.78 8.10982C78.78 7.86982 78.73 7.68982 78.62 7.58982C78.53 7.50982 78.39 7.45982 78.19 7.45982H77.61V9.52982H78.19C78.38 9.52982 78.53 9.48982 78.62 9.39982C78.72 9.29982 78.78 9.12982 78.78 8.87982V8.09982V8.10982Z" fill="#1A1A1A"/>
<path d="M84.1499 7.45982H82.2699V9.28982H83.5599V10.4398H82.2699V12.4598H84.1499V13.6098H81.1299V6.31982H84.1499V7.46982V7.45982Z" fill="#1A1A1A"/>
<path d="M46.4201 32.9002C45.5801 32.9002 44.9101 32.6702 44.4301 32.2102C43.8601 31.6802 43.5801 30.9302 43.5801 29.9402V27.9302H44.3101V29.9402C44.3101 30.7202 44.5101 31.3002 44.9201 31.6802C45.2601 32.0102 45.7601 32.1702 46.4201 32.1702C47.0801 32.1702 47.5501 32.0102 47.9001 31.6802C48.3101 31.3102 48.5101 30.7302 48.5101 29.9402V28.9702C48.5101 28.0202 48.2601 27.3102 47.7601 26.8402C47.2601 26.3702 46.7701 26.0302 46.2801 25.8302C45.6901 25.6102 45.0901 25.2202 44.4801 24.6702C43.8701 24.1202 43.5701 23.2502 43.5701 22.0802V21.6802C43.5701 20.6902 43.8501 19.9402 44.4201 19.4102C44.9101 18.9502 45.5701 18.7202 46.4101 18.7202C47.2501 18.7202 47.9001 18.9502 48.4001 19.4102C48.9501 19.9202 49.2301 20.6802 49.2301 21.6802V23.0202H48.5001V21.6802C48.5001 20.8902 48.3001 20.3102 47.8901 19.9402C47.5601 19.6102 47.0701 19.4502 46.4101 19.4502C45.7501 19.4502 45.2501 19.6102 44.9101 19.9402C44.5001 20.3202 44.3001 20.9002 44.3001 21.6802V22.0802C44.3001 22.7602 44.4501 23.3202 44.7401 23.7602C45.0401 24.1902 45.3401 24.5002 45.6401 24.6902C45.9401 24.8702 46.2501 25.0302 46.5701 25.1602C48.3501 25.9402 49.2401 27.2102 49.2401 28.9702V29.9402C49.2401 30.9402 48.9601 31.7002 48.4101 32.2102C47.9101 32.6702 47.2501 32.9002 46.4201 32.9002Z" fill="#1A1A1A"/>
<path d="M56.5701 19.6299H52.3401V25.2799H55.3201V26.0099H52.3401V31.9899H56.5701V32.7199H51.6101V18.8999H56.5701V19.6299Z" fill="#1A1A1A"/>
<path d="M64.5599 32.7199H63.7899L61.8599 26.5799H59.6299V32.7199H58.8999V18.8999H61.7399C62.5699 18.8999 63.2299 19.1299 63.7299 19.5899C64.2799 20.0999 64.5599 20.8599 64.5599 21.8599V23.6199C64.5599 24.6199 64.2799 25.3799 63.7299 25.8899C63.4099 26.1699 63.0299 26.3599 62.5799 26.4799L64.5499 32.7199H64.5599ZM63.2199 25.3599C63.6299 24.9899 63.8299 24.4099 63.8299 23.6199V21.8599C63.8299 21.0699 63.6299 20.4899 63.2199 20.1199C62.8599 19.7899 62.3699 19.6299 61.7399 19.6299H59.6299V25.8499H61.7399C62.3699 25.8499 62.8699 25.6899 63.2199 25.3599Z" fill="#1A1A1A"/>
<path d="M69.7 31.1999L72.39 18.8999H73.14L70.08 32.7199H69.33L66.27 18.8999H67.02L69.71 31.1999H69.7Z" fill="#1A1A1A"/>
<path d="M75.28 32.7199V18.8999H76.01V32.7199H75.28Z" fill="#1A1A1A"/>
<path d="M81.32 32.9002C80.48 32.9002 79.81 32.6702 79.33 32.2102C78.76 31.6802 78.48 30.9302 78.48 29.9402V27.9302H79.21V29.9402C79.21 30.7202 79.41 31.3002 79.82 31.6802C80.16 32.0102 80.66 32.1702 81.32 32.1702C81.98 32.1702 82.45 32.0102 82.8 31.6802C83.21 31.3102 83.41 30.7302 83.41 29.9402V28.9702C83.41 28.0202 83.16 27.3102 82.66 26.8402C82.16 26.3702 81.67 26.0302 81.18 25.8302C80.59 25.6102 79.99 25.2202 79.38 24.6702C78.77 24.1202 78.47 23.2502 78.47 22.0802V21.6802C78.47 20.6902 78.75 19.9402 79.32 19.4102C79.81 18.9502 80.47 18.7202 81.31 18.7202C82.15 18.7202 82.8 18.9502 83.3 19.4102C83.85 19.9202 84.13 20.6802 84.13 21.6802V23.0202H83.4V21.6802C83.4 20.8902 83.2 20.3102 82.79 19.9402C82.46 19.6102 81.97 19.4502 81.31 19.4502C80.65 19.4502 80.15 19.6102 79.81 19.9402C79.4 20.3202 79.2 20.9002 79.2 21.6802V22.0802C79.2 22.7602 79.35 23.3202 79.64 23.7602C79.94 24.1902 80.24 24.5002 80.54 24.6902C80.84 24.8702 81.15 25.0302 81.47 25.1602C83.25 25.9402 84.14 27.2102 84.14 28.9702V29.9402C84.14 30.9402 83.86 31.7002 83.31 32.2102C82.81 32.6702 82.15 32.9002 81.32 32.9002Z" fill="#1A1A1A"/>
<path d="M35.19 11.1898C34.27 9.00976 32.95 7.04977 31.27 5.36977C29.59 3.68977 27.63 2.36977 25.45 1.44977C23.19 0.489766 20.79 0.00976562 18.32 0.00976562C15.85 0.00976562 13.45 0.489766 11.19 1.44977C9.01001 2.36977 7.05001 3.68977 5.37001 5.36977C3.69001 7.04977 2.37001 9.00976 1.45001 11.1898C0.49001 13.4498 0.0100098 15.8498 0.0100098 18.3198C0.0100098 20.7898 0.49001 23.1898 1.45001 25.4498C2.37001 27.6298 3.69001 29.5898 5.37001 31.2698C7.05001 32.9498 9.01001 34.2698 11.19 35.1898C11.95 35.5098 12.73 35.7798 13.53 35.9998V22.1198L18.44 17.9098L23.9 22.4698L23.94 22.5098L25.53 20.6098L18.41 14.6698L13.53 18.8598V15.4798H11.05V32.3898C5.97001 29.7498 2.49001 24.4398 2.49001 18.3198C2.49001 9.58977 9.59001 2.47977 18.33 2.47977C27.07 2.47977 34.17 9.57977 34.17 18.3198C34.17 25.0698 29.92 30.8498 23.96 33.1298V35.7598C24.47 35.5998 24.97 35.4098 25.47 35.1998C27.65 34.2798 29.61 32.9598 31.29 31.2798C32.97 29.5998 34.29 27.6398 35.21 25.4598C36.17 23.1998 36.65 20.7998 36.65 18.3298C36.65 15.8598 36.17 13.4598 35.21 11.1998L35.19 11.1898Z" fill="#1A1A1A"/>
<path d="M18.2299 22.4399H16.8799V23.7899H18.2299V22.4399Z" fill="#1A1A1A"/>
<path d="M19.9899 22.4399H18.6399V23.7899H19.9899V22.4399Z" fill="#1A1A1A"/>
<path d="M18.2299 24.1699H16.8799V25.5199H18.2299V24.1699Z" fill="#1A1A1A"/>
<path d="M19.9899 24.1699H18.6399V25.5199H19.9899V24.1699Z" fill="#1A1A1A"/>
</g>
<defs>
<clipPath id="clip0_842_165">
<rect width="84.15" height="36" fill="white"/>
</clipPath>
</defs>
</svg>
