<svg width="150" height="36" viewBox="0 0 150 36" fill="none" xmlns="http://www.w3.org/2000/svg">
<g clip-path="url(#clip0_842_63)">
<path d="M118.31 14.6899H0V35.9999H118.31V14.6899Z" fill="#33B1FF"/>
<path d="M9.89001 25.35V19.86H12.44V5.49H9.89001V0H23.63C27.03 0 29.59 0.58 31.33 1.75C33.07 2.92 33.93 4.66 33.93 6.97C33.93 8.19 33.63 9.27 33.03 10.22C32.43 11.17 31.56 11.89 30.43 12.39C31.65 12.88 32.61 13.61 33.31 14.59C34.01 15.57 34.36 16.75 34.36 18.12C34.36 20.44 33.51 22.23 31.81 23.48C30.11 24.73 27.68 25.35 24.52 25.35H9.89001ZM22.66 5.33H20.53V10.2H22.66C24.63 10.2 25.62 9.39 25.62 7.76C25.62 6.13 24.63 5.32 22.66 5.32V5.33ZM20.52 20.01H22.99C25.03 20.01 26.05 19.11 26.05 17.32C26.05 15.53 25.03 14.63 22.99 14.63H20.52V20.01Z" fill="#101823"/>
<path d="M37.61 25.35V20.57H40.08V5.89H37.61V1.54L47.72 0.5V20.56H50.19V25.34H37.61V25.35Z" fill="#101823"/>
<path d="M61.12 25.65C57.19 25.65 55.23 23.44 55.23 19.03V13.27H53V8.91998L62.87 7.97998V19.05C62.87 19.7 63.01 20.16 63.3 20.45C63.59 20.74 63.95 20.88 64.4 20.88C65.2 20.88 65.81 20.47 66.25 19.65V13.27H64.82V8.91998L73.9 7.97998V20.57H76.13V25.35H66.42V23.49C65.78 24.17 65.03 24.7 64.15 25.08C63.27 25.46 62.27 25.65 61.13 25.65H61.12Z" fill="#101823"/>
<path d="M79.17 31.6802V26.9002H81.48V13.2602H79.17V8.91021L88.96 7.97021V10.0402C89.62 9.41022 90.38 8.91022 91.25 8.54022C92.12 8.16022 93.01 7.98022 93.91 7.98022C95.46 7.98022 96.79 8.35021 97.9 9.08021C99.01 9.81021 99.86 10.8402 100.46 12.1702C101.06 13.5002 101.35 15.0502 101.35 16.8302C101.35 18.6102 101.06 20.1502 100.47 21.4702C99.89 22.7902 99.07 23.8102 98.01 24.5302C96.95 25.2502 95.72 25.6102 94.31 25.6102C92.48 25.6102 90.75 24.9502 89.12 23.6202V26.9002H91.43V31.6802H79.17ZM91.44 20.8602C92.19 20.8602 92.78 20.5002 93.19 19.7902C93.6 19.0802 93.81 18.0902 93.81 16.8102C93.81 15.5302 93.6 14.5402 93.19 13.8202C92.78 13.1002 92.19 12.7402 91.44 12.7402C91.05 12.7402 90.63 12.8002 90.2 12.9202C89.76 13.0402 89.4 13.2102 89.12 13.4202V20.1202C89.41 20.3202 89.77 20.4902 90.2 20.6402C90.64 20.7802 91.05 20.8602 91.44 20.8602Z" fill="#101823"/>
<path d="M104.57 25.35V20.57H106.88V5.89H104.57V1.54L114.52 0.5V16.33L118.42 13.05H115.97V8.27H126.73V13.05H123.71L120.94 15.37L124.68 20.56H127.07V25.34H118.98L114.52 19.02V25.34H104.57V25.35Z" fill="#101823"/>
<path d="M139.63 25.63C137.63 25.63 135.91 25.27 134.46 24.56C133.01 23.85 131.9 22.83 131.12 21.52C130.34 20.2 129.95 18.64 129.95 16.82C129.95 15 130.34 13.42 131.12 12.11C131.9 10.8 133.01 9.77998 134.46 9.05998C135.91 8.33998 137.63 7.97998 139.63 7.97998C141.63 7.97998 143.35 8.33998 144.8 9.05998C146.25 9.77998 147.36 10.79 148.14 12.11C148.92 13.43 149.31 15 149.31 16.82C149.31 18.64 148.92 20.2 148.14 21.52C147.36 22.84 146.25 23.85 144.8 24.56C143.35 25.27 141.63 25.63 139.63 25.63ZM139.63 21C141.06 21 141.78 19.6 141.78 16.81C141.78 14.02 141.06 12.62 139.63 12.62C138.2 12.62 137.48 14.02 137.48 16.81C137.48 19.6 138.2 21 139.63 21Z" fill="#101823"/>
</g>
<defs>
<clipPath id="clip0_842_63">
<rect width="149.31" height="36" fill="white"/>
</clipPath>
</defs>
</svg>
