<svg width="148" height="36" viewBox="0 0 148 36" fill="none" xmlns="http://www.w3.org/2000/svg">
<g clip-path="url(#clip0_842_143)">
<path d="M17.22 3.1C17.22 3.1 17.32 3.1 17.36 3.1C17.64 3.11 17.92 3.13 18.21 3.15C19.51 3.25 20.78 3.43 21.97 3.71V0.69C20.75 0.38 19.45 0.17 18.09 0.07C17.59 0.03 17.06 0.01 16.52 0C16.38 0 16.23 0 16.08 0H16.07C13.52 0 10.9 0.34 8.28 1C5.3 1.75 2.45 2.9 0 4.35V34.37C2.39 33.07 5.08 32.02 7.89 31.31C10.1 30.75 12.33 30.41 14.52 30.3H14.54C14.56 30.3 14.58 30.3 14.6 30.3C14.97 30.28 15.35 30.27 15.73 30.27V27.2C12.91 27.23 10.02 27.61 7.13 28.34C6.09 28.6 5.08 28.9 4.14 29.22L3.07 29.58V6.17L3.53 5.95C5.25 5.13 7.1 4.47 9.03 3.98C10.94 3.5 12.85 3.21 14.69 3.11C14.73 3.11 14.76 3.11 14.79 3.11C15.22 3.09 15.65 3.08 16.07 3.08C16.23 3.08 16.38 3.08 16.53 3.08H16.55C16.77 3.08 17 3.09 17.22 3.1Z" fill="#A51313"/>
<path d="M24.8 6.26992C24.09 6.26992 23.39 6.23992 22.72 6.19992C21.9 6.13992 21.09 6.03992 20.3 5.90992C19.82 5.82992 19.35 5.72992 18.89 5.62992V35.3099C20.69 35.7699 22.68 35.9999 24.8 35.9999C27.34 35.9999 29.96 35.6599 32.59 34.9999C35.57 34.2499 38.42 33.0999 40.87 31.6499V2.16992C38.48 3.46992 35.79 4.51992 32.99 5.22992C30.23 5.91992 27.48 6.27992 24.8 6.27992V6.26992ZM36.73 6.78992L37.79 6.42992V29.8399L37.33 30.0599C35.62 30.8799 33.77 31.5399 31.83 32.0299C29.45 32.6299 27.08 32.9399 24.79 32.9399C24.08 32.9399 23.38 32.9099 22.69 32.8499L21.95 32.7899V29.9499V9.55992V8.69992L22.81 8.75992C23.43 8.79992 24.08 8.81992 24.78 8.81992C27.71 8.81992 30.72 8.43992 33.72 7.67992C34.73 7.41992 35.74 7.12992 36.71 6.79992L36.73 6.78992Z" fill="#FF9331"/>
<path d="M64.58 17.8699C64.58 21.5099 62.51 24.7099 58.34 24.7099C54.42 24.7099 52.26 21.7199 52.26 17.9399C52.26 14.1599 54.5 11.1499 58.5 11.1499C62.23 11.1499 64.58 13.9199 64.58 17.8599V17.8699ZM54.3 17.8899C54.3 20.6799 55.68 23.0599 58.41 23.0599C61.37 23.0599 62.52 20.6199 62.52 17.8999C62.52 15.1799 61.21 12.7999 58.41 12.7999C55.61 12.7999 54.3 15.1099 54.3 17.8799V17.8899Z" fill="#2B1818"/>
<path d="M67.27 11.3501H72.35C74.97 11.3501 76.73 12.8101 76.73 15.2401C76.73 17.8601 74.83 19.2201 72.26 19.2201H69.23V24.5301H67.28V11.3601L67.27 11.3501ZM69.22 17.5801H72.12C73.83 17.5801 74.74 16.7601 74.74 15.2701C74.74 13.7801 73.66 12.9801 72.18 12.9801H69.22V17.5901V17.5801Z" fill="#2B1818"/>
<path d="M82.24 13.0098H78.03V11.3398H88.42V13.0098H84.21V24.5098H82.24V13.0098Z" fill="#2B1818"/>
<path d="M92.23 11.3501V24.5201H90.28V11.3501H92.23Z" fill="#2B1818"/>
<path d="M107.24 17.8699C107.24 21.5099 105.17 24.7099 101 24.7099C97.08 24.7099 94.92 21.7199 94.92 17.9399C94.92 14.1599 97.16 11.1499 101.16 11.1499C104.89 11.1499 107.24 13.9199 107.24 17.8599V17.8699ZM96.97 17.8899C96.97 20.6799 98.35 23.0599 101.08 23.0599C104.04 23.0599 105.19 20.6199 105.19 17.8999C105.19 15.1799 103.88 12.7999 101.08 12.7999C98.28 12.7999 96.97 15.1099 96.97 17.8799V17.8899Z" fill="#2B1818"/>
<path d="M109.94 11.3501H111.87V17.7001C112.84 16.7001 116.06 13.4501 118.05 11.3501H120.46L114.87 16.9001L120.73 24.5201H118.36L113.51 18.1501L111.88 19.6501V24.5201H109.95V11.3501H109.94Z" fill="#2B1818"/>
<path d="M122.35 24.5201V11.3501H124.89C126.73 14.4201 130.63 20.7301 131.35 22.1501H131.37C131.24 20.5201 131.26 18.4201 131.26 16.2601V11.3501H133.08V24.5201H130.69C129 21.7101 124.91 14.8501 124.11 13.3601H124.07C124.16 14.8001 124.18 17.1101 124.18 19.5001V24.5201H122.34H122.35Z" fill="#2B1818"/>
<path d="M138.4 20.7501L137.07 24.5201H135.12L139.76 11.3501H142.19L147.04 24.5201H144.96L143.58 20.7501H138.41H138.4ZM143.1 19.0801C141.91 15.7601 141.22 13.9201 140.94 12.9001H140.92C140.6 14.0401 139.84 16.2401 138.89 19.0801H143.1Z" fill="#2B1818"/>
</g>
<defs>
<clipPath id="clip0_842_143">
<rect width="147.05" height="36" fill="white"/>
</clipPath>
</defs>
</svg>
