<svg width="142" height="36" viewBox="0 0 142 36" fill="none" xmlns="http://www.w3.org/2000/svg">
<g clip-path="url(#clip0_842_71)">
<path d="M51.41 26.7701H45.54V11.0801H51.41C56.54 11.0801 59.75 14.6001 59.75 18.9301C59.75 23.2601 56.54 26.7801 51.41 26.7801V26.7701ZM51.41 13.8301H49.01V24.0101H51.41C54.39 24.0101 56.25 21.7201 56.25 18.9201C56.25 16.1201 54.39 13.8301 51.41 13.8301Z" fill="#2F3237"/>
<path d="M64.35 26.7701V11.0801H74.77V13.8401H67.82V17.7001H73.85V20.4601H67.82V24.0201H74.77V26.7801H64.35V26.7701Z" fill="#2F3237"/>
<path d="M82.93 19.5898V26.7598H79.5V11.0698H82.93V18.2698L87.57 11.0698H91.13V11.5198L86.24 18.7598L88.21 22.2298C89.15 23.8698 89.51 24.0698 90.41 24.0698C90.66 24.0698 91.04 23.9598 91.51 23.6898L92.77 26.1598C91.76 26.8098 90.82 27.0098 89.74 27.0098C87.81 27.0098 86.33 25.7998 85.32 23.8298L82.92 19.5498V19.5898H82.93Z" fill="#2F3237"/>
<path d="M99.72 26.7701H96.25V11.0801H99.72V26.7701Z" fill="#2F3237"/>
<path d="M112.82 26.5901L108.9 17.2201L108.07 26.7701H104.6L106.06 11.0801H109.56L113.95 21.6401L118.34 11.0801H121.84L123.3 26.7701H119.83L119 17.2201L115.08 26.5901H112.84H112.82Z" fill="#2F3237"/>
<path d="M126.43 26.7701L132.48 11.0801H135.87L142.01 26.7701H138.38L137.26 23.8301V23.8701H131.1V23.8301L130.02 26.7701H126.43ZM132.03 21.0301H136.27L134.19 14.7501L132.04 21.0301H132.03Z" fill="#2F3237"/>
<path d="M34.39 14.4399L32.26 14.9599L24.55 16.8099C24.55 20.5699 22.35 23.5099 18.27 23.5099H14.67L15.56 19.0399L7.43005 21.0599L5.80005 29.4899L18.01 29.5299C26.3601 29.5299 32.35 24.4199 32.35 16.3399C32.35 16.0999 32.3501 15.8699 32.3301 15.6499L34.39 14.4399Z" fill="#2F3237"/>
<path d="M1.58 21.43C1.35 20.32 1.23 19.18 1.23 18C1.23 8.75 8.75 1.23 18 1.23C25.69 1.23 32.18 6.43 34.15 13.49L35.34 13.2C33.24 5.6 26.26 0 18 0C8.07 0 0 8.07 0 18C0 19.27 0.14 20.52 0.39 21.72L1.58 21.43Z" fill="#2F3237"/>
<path d="M34.39 14.4399C34.64 15.5899 34.77 16.7799 34.77 17.9999C34.77 27.2499 27.25 34.7699 18 34.7699C10.27 34.7699 3.74 29.5099 1.81 22.3799L0.619995 22.6699C2.68 30.3399 9.68999 35.9999 18 35.9999C27.93 35.9999 36 27.9299 36 17.9999C36 16.6799 35.85 15.3899 35.58 14.1499L34.39 14.4399Z" fill="#FD5050"/>
<path d="M14.24 18.3398L15.49 12.0598H18.43C21.51 12.0598 23.18 13.5398 23.21 16.1498L30.91 14.2698C30.23 9.12979 25.94 6.02979 19.32 6.02979H8.98003L6.26003 19.6298L4.16003 20.7798L14.24 18.3198V18.3398Z" fill="#FD5050"/>
</g>
<defs>
<clipPath id="clip0_842_71">
<rect width="142.01" height="36" fill="white"/>
</clipPath>
</defs>
</svg>
