<svg width="123" height="36" viewBox="0 0 123 36" fill="none" xmlns="http://www.w3.org/2000/svg">
<g clip-path="url(#clip0_842_83)">
<path fill-rule="evenodd" clip-rule="evenodd" d="M15.71 0C24.39 0 31.42 7.03 31.42 15.71C31.42 21.75 28.01 27 23 29.63L20.07 22.7C18.48 18.12 20.91 18.82 20.68 15.41C20.4 11.09 17.26 9.96 14 9.79C13.87 9.79 13.75 9.85 13.69 9.97C13.63 10.09 13.64 10.22 13.73 10.33C14.36 11.11 15.46 12.49 15.89 13.06C16.5 13.88 17.03 15.37 15.67 16.62C14.31 17.87 12.77 17.22 11.48 15.76C10.67 14.84 9.95 13.98 9.52 13.46C9.44 13.36 9.31 13.32 9.19 13.35C9.06 13.38 8.97 13.47 8.94 13.6C8.66 14.86 8.29 17.74 10.21 19.84C12.56 22.42 13.8 20.03 16.09 24.72L18.82 31.11L20.91 36L15.01 32.24C14.01 31.61 12.88 31.22 11.71 31.11C4.09 30.03 0 23.64 0 15.71C0 7.03 7.03 0 15.71 0Z" fill="#5061FF"/>
<path d="M42.18 22.4099C41.24 21.8799 40.5 21.1499 39.95 20.2199C39.4 19.2899 39.13 18.2299 39.13 17.0499C39.13 15.8699 39.41 14.8299 39.95 13.8999C40.5 12.9699 41.24 12.2399 42.18 11.7099C43.12 11.1799 44.15 10.9199 45.27 10.9199C46.39 10.9199 47.44 11.1799 48.37 11.7099C49.3 12.2399 50.04 12.9699 50.59 13.8999C51.13 14.8299 51.41 15.8899 51.41 17.0499C51.41 18.2099 51.14 19.2899 50.59 20.2199C50.05 21.1499 49.3 21.8799 48.36 22.4099C47.42 22.9399 46.39 23.1999 45.27 23.1999C44.15 23.1999 43.12 22.9399 42.18 22.4099ZM47.18 20.5599C47.73 20.2299 48.16 19.7699 48.47 19.1599C48.78 18.5499 48.93 17.8499 48.93 17.0499C48.93 16.2499 48.78 15.5499 48.47 14.9399C48.16 14.3299 47.73 13.8799 47.18 13.5599C46.63 13.2399 45.99 13.0799 45.27 13.0799C44.55 13.0799 43.91 13.2399 43.35 13.5599C42.79 13.8799 42.36 14.3399 42.05 14.9399C41.74 15.5399 41.59 16.2399 41.59 17.0499C41.59 17.8599 41.74 18.5599 42.05 19.1599C42.36 19.7699 42.79 20.2299 43.35 20.5599C43.91 20.8899 44.54 21.0499 45.27 21.0499C46 21.0499 46.63 20.8899 47.18 20.5599Z" fill="#141414"/>
<path d="M60.52 15.9302V17.9602H53.23V15.9302H60.52Z" fill="#141414"/>
<path d="M76.29 11.0801V23.0801H73.88V15.2801L70.67 23.0801H68.85L65.62 15.2801V23.0801H63.21V11.0801H65.94L69.76 20.0001L73.58 11.0801H76.3H76.29Z" fill="#141414"/>
<path d="M78.62 15.7199C79 14.9799 79.53 14.3999 80.18 13.9999C80.84 13.5999 81.57 13.3999 82.39 13.3999C83.1 13.3999 83.72 13.5399 84.25 13.8299C84.78 14.1199 85.21 14.4799 85.53 14.9099V13.5499H87.95V23.0699H85.53V21.6799C85.22 22.1299 84.79 22.4999 84.25 22.7899C83.71 23.0799 83.08 23.2299 82.37 23.2299C81.57 23.2299 80.84 23.0199 80.18 22.6099C79.52 22.1999 79 21.6199 78.62 20.8699C78.24 20.1199 78.04 19.2599 78.04 18.2799C78.04 17.2999 78.23 16.4599 78.62 15.7199ZM85.2 16.8199C84.97 16.3999 84.66 16.0799 84.27 15.8599C83.88 15.6399 83.46 15.5199 83.02 15.5199C82.58 15.5199 82.16 15.6299 81.78 15.8499C81.4 16.0699 81.1 16.3899 80.86 16.7999C80.63 17.2199 80.51 17.7099 80.51 18.2899C80.51 18.8699 80.63 19.3599 80.86 19.7899C81.09 20.2199 81.4 20.5499 81.79 20.7799C82.17 21.0099 82.58 21.1199 83.02 21.1199C83.46 21.1199 83.89 21.0099 84.27 20.7799C84.66 20.5599 84.97 20.2399 85.2 19.8199C85.43 19.3999 85.54 18.8999 85.54 18.3199C85.54 17.7399 85.43 17.2299 85.2 16.8199Z" fill="#141414"/>
<path d="M91.8701 22.8099C91.2501 22.5299 90.7601 22.1499 90.4001 21.6699C90.0401 21.1899 89.8401 20.6599 89.8101 20.0699H92.2301C92.2801 20.4399 92.4601 20.7399 92.7701 20.9799C93.0801 21.2199 93.4801 21.3399 93.9501 21.3399C94.4201 21.3399 94.7701 21.2499 95.0201 21.0599C95.2801 20.8799 95.4101 20.6399 95.4101 20.3599C95.4101 20.0499 95.2501 19.8199 94.9401 19.6599C94.6201 19.5099 94.1201 19.3399 93.4401 19.1499C92.7301 18.9799 92.1501 18.7999 91.7001 18.6199C91.2501 18.4399 90.8601 18.1599 90.5301 17.7799C90.2001 17.3999 90.0401 16.8899 90.0401 16.2499C90.0401 15.7199 90.1901 15.2399 90.5001 14.8099C90.8001 14.3699 91.2401 14.0299 91.8101 13.7799C92.3801 13.5299 93.0401 13.3999 93.8101 13.3999C94.9401 13.3999 95.8501 13.6799 96.5301 14.2499C97.2101 14.8199 97.5801 15.5799 97.6501 16.5399H95.3501C95.3201 16.1599 95.1601 15.8599 94.8801 15.6399C94.6001 15.4199 94.2201 15.2999 93.7501 15.2999C93.3101 15.2999 92.9801 15.3799 92.7401 15.5399C92.5101 15.6999 92.3901 15.9199 92.3901 16.2099C92.3901 16.5299 92.5501 16.7699 92.8701 16.9399C93.1901 17.1099 93.6901 17.2799 94.3701 17.4499C95.0601 17.6199 95.6201 17.7999 96.0701 17.9799C96.5201 18.1599 96.9001 18.4499 97.2301 18.8299C97.5601 19.2099 97.7301 19.7199 97.7401 20.3499C97.7401 20.8999 97.5901 21.3899 97.2801 21.8299C96.9801 22.2699 96.5401 22.6099 95.9701 22.8499C95.4001 23.0899 94.7401 23.2199 93.9801 23.2199C93.2201 23.2199 92.5001 23.0799 91.8801 22.7999L91.8701 22.8099Z" fill="#141414"/>
<path d="M102.49 15.54V20.15C102.49 20.47 102.57 20.7 102.72 20.85C102.87 20.99 103.14 21.06 103.5 21.06H104.62V23.09H103.11C101.08 23.09 100.07 22.1 100.07 20.13V15.54H98.9399V13.56H100.07V11.21H102.49V13.56H104.62V15.54H102.49Z" fill="#141414"/>
<path d="M115.14 19.0399H108.18C108.24 19.7299 108.48 20.2699 108.9 20.6599C109.32 21.0499 109.85 21.2399 110.46 21.2399C111.35 21.2399 111.99 20.8599 112.37 20.0899H114.97C114.69 21.0099 114.17 21.7599 113.39 22.3499C112.61 22.9399 111.65 23.2399 110.52 23.2399C109.6 23.2399 108.78 23.0399 108.05 22.6299C107.32 22.2199 106.76 21.6499 106.35 20.8999C105.94 20.1599 105.74 19.2999 105.74 18.3199C105.74 17.3399 105.94 16.4699 106.34 15.7199C106.74 14.9799 107.3 14.3999 108.02 13.9999C108.74 13.5999 109.57 13.3999 110.51 13.3999C111.45 13.3999 112.23 13.5899 112.94 13.9799C113.66 14.3699 114.21 14.9199 114.61 15.6399C115.01 16.3599 115.2 17.1799 115.2 18.1099C115.2 18.4499 115.18 18.7599 115.13 19.0399H115.14ZM112.71 17.4299C112.7 16.8099 112.48 16.3199 112.04 15.9399C111.6 15.5699 111.07 15.3799 110.44 15.3799C109.84 15.3799 109.34 15.5599 108.94 15.9199C108.53 16.2799 108.28 16.7799 108.19 17.4199H112.71V17.4299Z" fill="#141414"/>
<path d="M120.58 13.8499C121.08 13.5599 121.65 13.4199 122.29 13.4199V15.9499H121.65C120.89 15.9499 120.32 16.1299 119.94 16.4799C119.56 16.8399 119.36 17.4499 119.36 18.3399V23.0799H116.95V13.5599H119.36V15.0399C119.67 14.5399 120.07 14.1399 120.57 13.8499H120.58Z" fill="#141414"/>
</g>
<defs>
<clipPath id="clip0_842_83">
<rect width="122.29" height="36" fill="white"/>
</clipPath>
</defs>
</svg>
