<svg width="64" height="64" viewBox="0 0 64 64" fill="none" xmlns="http://www.w3.org/2000/svg">
<path d="M58.63 7.26986C51.237 -0.164864 39.0359 0.204718 31.997 7.93283C24.9576 0.204991 12.757 -0.165001 5.36401 7.26999C-1.98768 14.5913 -1.73723 26.6473 5.83755 33.7137C1.96228 37.4148 4.18236 44.0657 9.45704 44.714C9.14108 48.3258 12.2152 51.638 15.8515 51.5766C16.0745 55.5527 20.0652 58.3988 23.8912 57.348C25.1465 62.085 31.1806 63.7037 34.6424 60.2173C36.6084 58.263 38.172 57.0306 38.2717 54.0706C41.5204 53.9801 44.3312 51.1311 44.3807 47.8843C47.6606 47.8337 50.5182 44.9751 50.5687 41.6962C53.9713 41.6445 56.9215 38.5735 56.7631 35.1067L58.6297 33.2402C65.7899 26.0801 65.7899 14.4298 58.63 7.26986ZM8.65209 36.7022L10.4053 34.949C10.8585 34.4958 11.4535 34.2693 12.0488 34.2693C14.0898 34.2557 15.1552 36.7792 13.6919 38.2355L11.9387 39.9888C9.66919 42.0781 6.56249 38.9726 8.65209 36.7022ZM13.5408 45.1525C13.5408 44.5317 13.7826 43.948 14.2215 43.5091L15.9757 41.755C16.4145 41.3166 16.9978 41.0752 17.6181 41.0752C19.6765 41.0717 20.7198 43.5893 19.2614 45.0425L17.7144 46.5895C17.2415 47.1254 16.5919 47.4881 15.8647 47.4764C14.6157 47.5021 13.5149 46.4017 13.5408 45.1525ZM20.6159 52.7775C19.7144 51.9125 19.7144 50.3561 20.6159 49.4911L22.1629 47.9439C23.0648 46.8732 24.6482 46.7338 25.6559 47.7377C26.5619 48.6439 26.5619 50.1179 25.6559 51.0242L23.9025 52.7776C22.9964 53.6841 21.5221 53.684 20.6159 52.7775ZM33.4942 55.5625L31.741 57.3158C31.302 57.7547 30.7184 57.9965 30.0977 57.9965C29.4768 57.9965 28.8932 57.7547 28.4543 57.3158C27.5529 56.4506 27.5525 54.8942 28.4544 54.0292L30.2075 52.2759C31.1135 51.3698 32.588 51.3698 33.4941 52.2758C34.3957 53.1409 34.3959 54.6974 33.4942 55.5625ZM51.9814 36.9206C51.1162 37.8222 49.5598 37.8223 48.6948 36.9206L39.5637 27.7896L36.6622 30.6911L45.7933 39.8222C46.6993 40.7283 46.6993 42.2026 45.7933 43.1087C44.8871 44.0152 43.4129 44.0149 42.5067 43.1087L33.5305 34.1325L33.3756 33.9777L30.4741 36.8792L30.6289 37.034L39.6052 46.0103C40.5113 46.9164 40.5113 48.3908 39.6052 49.297C38.699 50.2032 37.2246 50.2032 36.3185 49.297L36.3167 49.2988C34.6495 47.6869 32.3194 47.1562 30.2149 47.7066C29.5449 44.9691 26.793 42.8966 24.0257 42.9569C23.8915 40.0104 21.4005 37.3486 18.4567 37.0306C18.8451 31.9752 13.2929 28.4937 8.91129 30.9841C2.80895 25.5331 2.43308 15.9641 8.26582 10.1714C14.0651 4.33153 23.6471 4.71848 29.0958 10.8344L24.0231 15.907L28.0878 19.9717C31.2101 23.0943 36.0215 23.5239 39.6089 21.261L51.9818 33.6341C52.8874 34.5401 52.8874 36.0145 51.9814 36.9206ZM55.7285 30.3386L55.1033 30.9637C55.032 30.8852 54.9585 30.8081 54.883 30.7325L39.7701 15.6195L38.3193 17.0702C36.2985 19.091 33.0103 19.0913 30.9891 17.0702L29.8259 15.907L35.5615 10.1714C49.4941 -2.65222 68.5493 16.415 55.7285 30.3386Z" fill="#F1A225"/>
</svg>
