<svg width="64" height="64" viewBox="0 0 64 64" fill="none" xmlns="http://www.w3.org/2000/svg">
<g clip-path="url(#clip0_39_347)">
<path d="M57.7513 6.24862C53.9198 2.40152 48.7647 0.161531 43.338 -0.0142112C37.9113 -0.189953 32.622 1.7118 28.5497 5.30294C24.4774 8.89408 21.929 13.9039 21.4245 19.31C20.9201 24.716 22.4976 30.1109 25.8353 34.3934L23.6358 36.5929C22.4464 36.0758 21.1405 35.886 19.8531 36.0431C18.5657 36.2003 17.3438 36.6986 16.3137 37.4865C14.1931 39.119 12.1003 40.8398 10.0915 42.602C7.38272 44.9793 4.74752 47.502 2.25899 50.0977C0.786137 51.6559 -0.020999 53.7271 0.00911408 55.871C0.0392272 58.0149 0.904216 60.0626 2.42025 61.5788C3.93628 63.0951 5.98384 63.9604 8.12776 63.9908C10.2717 64.0212 12.343 63.2143 13.9014 61.7417C16.4977 59.2521 19.0214 56.6172 21.3979 53.9084C23.1601 51.8993 24.8809 49.8065 26.5131 47.6862C27.3012 46.6562 27.7996 45.4342 27.9567 44.1468C28.1139 42.8595 27.9241 41.5535 27.407 40.3641L29.6065 38.1646C33.8903 41.4907 39.2807 43.0589 44.6803 42.5501C50.0798 42.0413 55.0824 39.4937 58.6695 35.426C62.2566 31.3582 64.1585 26.0762 63.9879 20.6555C63.8173 15.2347 61.587 10.0828 57.7513 6.24862ZM22.2873 44.4324C20.7238 46.4636 19.0766 48.4678 17.3891 50.3894C15.1131 52.9841 12.6979 55.5076 10.2102 57.8905C9.65888 58.3967 8.9333 58.6704 8.18498 58.6544C7.43666 58.6384 6.72346 58.3339 6.19432 57.8045C5.66518 57.2751 5.36101 56.5618 5.34533 55.8135C5.32965 55.0652 5.60368 54.3397 6.11019 53.7886C8.49232 51.302 11.0169 48.8868 13.6105 46.6108C15.5321 44.923 17.5363 43.2774 19.5675 41.7126C19.9412 41.4285 20.4052 41.2894 20.8736 41.3211C21.342 41.3528 21.783 41.5532 22.1149 41.8852C22.4469 42.2172 22.6473 42.6582 22.679 43.1265C22.7108 43.5949 22.5714 44.0587 22.2873 44.4324ZM53.9801 32.6473C51.3625 35.2647 47.9184 36.8935 44.2345 37.2562C40.5507 37.6189 36.855 36.6931 33.7772 34.6365C30.6995 32.5798 28.43 29.5197 27.3556 25.9774C26.2811 22.4351 26.4681 18.6298 27.8848 15.2099C29.3014 11.7901 31.86 8.96719 35.1247 7.22231C38.3893 5.47742 42.1579 4.91847 45.7885 5.6407C49.419 6.36293 52.6868 8.32164 55.0351 11.1831C57.3833 14.0446 58.6668 17.6318 58.6667 21.3334C58.6724 23.4355 58.2611 25.5178 57.4566 27.4598C56.6522 29.4018 55.4705 31.165 53.9801 32.6473Z" fill="#F1A225"/>
<path d="M33.2381 11.9054C32.7417 12.4062 32.4638 13.0833 32.4653 13.7885C32.4669 14.4938 32.7477 15.1696 33.2464 15.6683C33.745 16.167 34.4209 16.4478 35.1262 16.4494C35.8314 16.4509 36.5085 16.173 37.0093 15.6766C38.5108 14.1785 40.5453 13.3372 42.6663 13.3372C44.7873 13.3372 46.8217 14.1785 48.3232 15.6766C48.8249 16.1688 49.5007 16.4431 50.2035 16.4397C50.9064 16.4364 51.5795 16.1556 52.0765 15.6586C52.5735 15.1616 52.8541 14.4885 52.8574 13.7856C52.8607 13.0828 52.5864 12.407 52.0941 11.9054C49.5917 9.4087 46.2011 8.00659 42.6661 8.00659C39.1312 8.00659 35.7406 9.4087 33.2381 11.9054Z" fill="#F1A225"/>
</g>
<defs>
<clipPath id="clip0_39_347">
<rect width="64" height="64" fill="white"/>
</clipPath>
</defs>
</svg>
