<svg width="64" height="64" viewBox="0 0 64 64" fill="none" xmlns="http://www.w3.org/2000/svg">
<path d="M60.697 29.5271L55.1026 23.9514C55.0616 23.9105 55.0204 23.874 54.979 23.8394C54.5396 23.4561 53.9666 23.2221 53.3377 23.2221H45.0545C46.5046 20.8562 47.3052 18.1089 47.3052 15.263C47.3052 6.84687 40.4394 0 32 0C23.5606 0 16.6947 6.84687 16.6947 15.263C16.6947 18.1089 17.4954 20.8562 18.9455 23.2221H10.6621C10.0286 23.2221 9.45187 23.4596 9.01125 23.8481C8.973 23.8801 8.93487 23.9139 8.89737 23.9514L3.303 29.5271C2.32512 30.5019 2.3225 32.0848 3.29712 33.0626C3.7855 33.5527 4.42662 33.7979 5.06787 33.7979C5.70625 33.7979 6.34475 33.5549 6.83275 33.0686L8.16225 31.7435V54C8.16225 59.514 12.6482 64 18.1622 64H45.8379C48.4834 64 50.9772 62.9766 52.8599 61.1185C54.7401 59.2627 55.7966 56.7866 55.8349 54.1461C55.8549 52.7655 54.7517 51.6302 53.3712 51.6102C53.3589 51.6101 53.3467 51.61 53.3344 51.61C51.9706 51.61 50.8551 52.7057 50.8354 54.0739C50.7961 56.7901 48.5542 59 45.8379 59H18.1621C15.4051 59 13.1621 56.757 13.1621 54V28.222H50.8377V41.61C50.8377 42.9907 51.957 44.11 53.3377 44.11C54.7185 44.11 55.8377 42.9907 55.8377 41.61V31.7435L57.1672 33.0686C57.6552 33.555 58.2936 33.7979 58.9321 33.7979C59.5732 33.7979 60.2145 33.5526 60.7029 33.0626C61.6775 32.0848 61.6749 30.5019 60.697 29.5271ZM25.4947 23.222C23.1024 21.2793 21.6947 18.3562 21.6947 15.2629C21.6947 9.60387 26.3176 5 32 5C37.6824 5 42.3052 9.60387 42.3052 15.263C42.3052 18.3564 40.8975 21.2794 38.5052 23.2221L25.4947 23.222Z" fill="#F1A225"/>
<path d="M40.8141 35.6846C39.4221 34.3042 37.593 33.5439 35.6638 33.5439C34.3965 33.5439 33.1565 33.9102 32 34.6168C30.8435 33.9102 29.6035 33.5439 28.3363 33.5439C26.407 33.5439 24.5779 34.3042 23.1858 35.6847C21.8415 37.0179 21.0456 38.7936 20.945 40.6852C20.8058 43.3122 21.9783 45.1028 22.3639 45.6917C23.5801 47.5482 27.9368 51.3187 29.7533 52.8534C30.3758 53.3794 31.1674 53.6723 31.9824 53.6782H32.0176C32.8326 53.6723 33.6243 53.3794 34.2466 52.8536C36.0633 51.3187 40.4199 47.5482 41.6364 45.6912C42.0218 45.1028 43.1941 43.3122 43.055 40.6852C43.055 40.6851 43.055 40.6848 43.055 40.6847C42.9543 38.7936 42.1585 37.0179 40.8141 35.6846ZM37.4536 42.9516C36.9703 43.6894 34.7088 45.8573 32 48.1967C29.2915 45.8574 27.0298 43.6894 26.5466 42.9521C26.2198 42.4528 25.8918 41.8244 25.938 40.9502C25.9725 40.3013 26.2455 39.6921 26.7065 39.2347C27.1559 38.7892 27.7346 38.5438 28.3363 38.5438C29.1069 38.5438 29.848 39.1777 30.2211 39.5556C30.6908 40.0313 31.3315 40.2989 31.9999 40.2989C32.6683 40.2989 33.309 40.0312 33.7786 39.5556C34.1518 39.1778 34.8929 38.5438 35.6635 38.5438C36.2651 38.5438 36.8439 38.7892 37.2931 39.2346C37.7541 39.6918 38.0271 40.3009 38.0618 40.9498C38.1083 41.8244 37.7803 42.4528 37.4536 42.9516Z" fill="#F1A225"/>
<path d="M32 11.5215C30.6193 11.5215 29.5 12.6407 29.5 14.0215V16.5045C29.5 17.8852 30.6193 19.0045 32 19.0045C33.3807 19.0045 34.5 17.8852 34.5 16.5045V14.0215C34.5 12.6407 33.3807 11.5215 32 11.5215Z" fill="#F1A225"/>
</svg>
