<svg width="64" height="64" viewBox="0 0 64 64" fill="none" xmlns="http://www.w3.org/2000/svg">
<path d="M62.8461 22.188L32.8461 8.18798C32.5812 8.06433 32.2924 8.00024 32.0001 8.00024C31.7077 8.00024 31.4189 8.06433 31.1541 8.18798L1.15405 22.188C0.809356 22.349 0.517742 22.605 0.313437 22.926C0.109131 23.247 0.000610352 23.6195 0.000610352 24C0.000610352 24.3804 0.109131 24.753 0.313437 25.074C0.517742 25.3949 0.809356 25.6509 1.15405 25.812L12.0001 30.874V46C12.0001 51.702 20.6001 56 32.0001 56C43.4001 56 52 51.702 52 46V30.874L56 29.006V40C56 40.5304 56.2108 41.0391 56.5858 41.4142C56.9609 41.7893 57.4696 42 58 42C58.5305 42 59.0392 41.7893 59.4143 41.4142C59.7893 41.0391 60 40.5304 60 40V27.14L62.8461 25.812C63.1908 25.6509 63.4824 25.3949 63.6867 25.074C63.891 24.753 63.9995 24.3804 63.9995 24C63.9995 23.6195 63.891 23.247 63.6867 22.926C63.4824 22.605 63.1908 22.349 62.8461 22.188ZM48 46C48 48.448 41.7681 52 32.0001 52C22.2321 52 16.0001 48.448 16.0001 46V32.74L31.1541 39.812C31.4189 39.9356 31.7077 39.9997 32.0001 39.9997C32.2924 39.9997 32.5812 39.9356 32.8461 39.812L42.8461 35.144C43.3184 34.9146 43.6816 34.5086 43.8572 34.0137C44.0327 33.5188 44.0066 32.9747 43.7845 32.4989C43.5623 32.023 43.162 31.6537 42.6698 31.4705C42.1777 31.2874 41.6332 31.3052 41.154 31.52L32.0001 35.8L6.72805 24L32.0001 12.2L57.2701 24L49.154 27.788C48.7777 27.9661 48.4671 28.2584 48.2664 28.6232C48.0657 28.988 47.9851 29.4067 48.036 29.82C48.021 29.8793 48.009 29.9394 48 30V46Z" fill="#F1A225"/>
</svg>
